<?xml version="1.0" encoding="UTF-8"?>
<!DOCTYPE svg PUBLIC "-//W3C//DTD SVG 1.1//EN" "http://www.w3.org/Graphics/SVG/1.1/DTD/svg11.dtd">
<!-- Creator: CorelDRAW 2018 (64 Bit Versão de avaliação) -->
<svg xmlns="http://www.w3.org/2000/svg" xml:space="preserve" width="122.373mm" height="108.978mm" version="1.1" style="shape-rendering:geometricPrecision; text-rendering:geometricPrecision; image-rendering:optimizeQuality; fill-rule:evenodd; clip-rule:evenodd"
viewBox="0 0 20422.08 18186.69"
 xmlns:xlink="http://www.w3.org/1999/xlink">
 <defs>
  <style type="text/css">
   <![CDATA[
    .fil0 {fill:#61DAFB}
   ]]>
  </style>
 </defs>
 <g id="Camada_x0020_1">
  <metadata id="CorelCorpID_0Corel-Layer"/>
  <g id="logo.svg">
   <g>
    <path class="fil0" d="M20422.08 9095.45c0,-1352.87 -1694.2,-2634.97 -4291.71,-3430.04 599.43,-2647.46 333.02,-4753.78 -840.86,-5428.12 -270.57,-158.19 -586.93,-233.1 -932.44,-233.1l0 928.27c191.48,0 345.5,37.47 474.55,108.22 566.12,324.69 811.72,1560.99 620.24,3151.14 -45.79,391.29 -120.72,803.39 -212.29,1223.82 -815.88,-199.81 -1706.7,-353.83 -2643.3,-453.74 -561.96,-770.1 -1144.74,-1469.43 -1731.67,-2081.34 1357.03,-1261.29 2630.8,-1952.29 3496.64,-1952.29l-0.02 -928.29c-1144.74,0 -2643.3,815.88 -4158.5,2231.2 -1515.22,-1406.98 -3013.78,-2214.54 -4158.5,-2214.54l0 928.27c861.67,0 2139.61,686.84 3496.64,1939.8 -582.77,611.91 -1165.55,1307.08 -1719.18,2077.16 -940.76,99.9 -1831.58,253.93 -2647.46,457.89 -95.74,-416.27 -166.5,-820.05 -216.46,-1207.17 -195.64,-1590.13 45.79,-2826.45 607.76,-3155.3 124.88,-74.93 287.22,-108.22 478.71,-108.22l-0.02 -928.29c-349.67,0 -666.03,74.93 -940.76,233.1 -1169.7,674.36 -1431.96,2776.51 -828.38,5415.64 -2589.18,799.24 -4275.07,2077.16 -4275.07,3425.88 0,1352.87 1694.2,2634.97 4291.71,3430.04 -599.43,2647.46 -333.02,4753.78 840.86,5428.12 270.57,158.19 586.93,233.1 936.6,233.1 1144.74,0 2643.3,-815.88 4158.5,-2231.2 1515.22,1406.98 3013.78,2214.54 4158.5,2214.54 349.67,0 666.03,-74.93 940.76,-233.1 1169.7,-674.36 1431.96,-2776.51 828.38,-5415.64 2580.85,-795.07 4266.74,-2077.16 4266.74,-3425.88l0.03 0.03zm-5419.81 -2776.51c-154.02,536.98 -345.5,1090.62 -561.96,1644.25 -170.67,-333.02 -349.67,-666.03 -545.31,-999.05 -191.48,-333.02 -395.45,-657.7 -599.43,-974.07 591.1,87.41 1161.39,195.64 1706.7,328.84l0 0.02zm-1906.49 4433.24c-324.69,561.96 -657.7,1094.79 -1003.2,1590.13 -620.24,54.12 -1248.81,83.26 -1881.53,83.26 -628.57,0 -1257.13,-29.14 -1873.2,-79.09 -345.5,-495.36 -682.67,-1024.01 -1007.36,-1581.82 -316.36,-545.31 -603.58,-1098.94 -865.84,-1656.74 258.09,-557.79 549.48,-1115.6 861.67,-1660.91 324.69,-561.96 657.7,-1094.79 1003.2,-1590.13 620.24,-54.12 1248.81,-83.26 1881.53,-83.26 628.57,0 1257.13,29.14 1873.2,79.09 345.5,495.36 682.67,1024.01 1007.36,1581.82 316.36,545.31 603.58,1098.94 865.84,1656.74 -262.24,557.79 -549.48,1115.6 -861.67,1660.91zm1344.53 -541.15c224.79,557.79 416.27,1115.6 574.45,1656.74 -545.31,133.21 -1119.75,245.6 -1715.03,333.02 203.96,-320.53 407.95,-649.38 599.43,-986.55 191.48,-333.02 370.48,-670.19 541.15,-1003.2zm-4220.93 4441.57c-387.14,-399.62 -774.26,-845.01 -1157.22,-1332.05 374.64,16.65 757.6,29.14 1144.74,29.14 391.29,0 778.41,-8.33 1157.22,-29.14 -374.64,487.03 -761.77,932.44 -1144.74,1332.05zm-3097.04 -2451.8c-591.1,-87.41 -1161.39,-195.64 -1706.7,-328.84 154.02,-536.98 345.5,-1090.62 561.96,-1644.25 170.67,333.02 349.67,666.03 545.31,999.05 195.64,333.02 395.45,657.7 599.43,974.07l0 -0.02zm3076.21 -8662.52c387.14,399.62 774.26,845.01 1157.22,1332.05 -374.64,-16.65 -757.6,-29.14 -1144.74,-29.14 -391.29,0 -778.41,8.33 -1157.22,29.14 374.64,-487.03 761.77,-932.44 1144.74,-1332.05zm-3080.37 2451.8c-203.96,320.53 -407.95,649.38 -599.43,986.55 -191.48,333.02 -370.48,666.03 -541.15,999.05 -224.79,-557.79 -416.27,-1115.6 -574.45,-1656.74 545.31,-129.05 1119.75,-241.43 1715.03,-328.84l0 -0.02zm-3767.21 5211.67c-1473.58,-628.57 -2426.84,-1452.77 -2426.84,-2106.32 0,-653.53 953.25,-1481.91 2426.84,-2106.32 357.98,-154.02 749.27,-291.4 1153.06,-420.43 237.27,815.88 549.48,1665.06 936.6,2535.06 -382.96,865.84 -691,1710.86 -924.12,2522.58 -412.1,-129.05 -803.39,-270.57 -1165.55,-424.58l0 0.02zm2239.51 5948.46c-566.12,-324.69 -811.72,-1560.99 -620.24,-3151.14 45.79,-391.29 120.72,-803.39 212.29,-1223.82 815.88,199.81 1706.7,353.83 2643.3,453.74 561.96,770.1 1144.74,1469.43 1731.67,2081.34 -1357.03,1261.29 -2630.8,1952.29 -3496.64,1952.29 -187.33,-4.16 -345.5,-41.62 -470.38,-112.4zm9873.86 -3171.95c195.64,1590.13 -45.79,2826.45 -607.76,3155.3 -124.88,74.93 -287.22,108.22 -478.71,108.22 -861.67,0 -2139.61,-686.84 -3496.64,-1939.8 582.77,-611.91 1165.55,-1307.08 1719.18,-2077.16 940.76,-99.9 1831.58,-253.93 2647.46,-457.89 95.74,420.43 170.67,824.2 216.46,1211.34zm1602.62 -2776.51c-357.98,154.02 -749.27,291.4 -1153.06,420.43 -237.27,-815.88 -549.48,-1665.06 -936.6,-2535.06 382.96,-865.84 691,-1710.86 924.12,-2522.58 412.1,129.05 803.39,270.57 1169.7,424.58 1473.58,628.57 2426.84,1452.77 2426.84,2106.32 -4.16,653.53 -957.41,1481.91 -2431.01,2106.32l0.02 -0.02zm-11026.91 -11185.1z"/>
    <circle class="fil0" cx="10206.88" cy="9095.45" r="1902.34"/>
   </g>
  </g>
 </g>
</svg>
